<svg xmlns="http://www.w3.org/2000/svg" version="1.1" xmlns:xlink="http://www.w3.org/1999/xlink" xmlns:svgjs="http://svgjs.com/svgjs" width="1440" height="560" preserveAspectRatio="none" viewBox="0 0 1440 560"><g mask="url(&quot;#SvgjsMask1002&quot;)" fill="none"><rect width="1440" height="560" x="0" y="0" fill="rgba(234, 128, 63, 1)"></rect><path d="M0,552.531C108.777,552.343,221.533,545.911,312.913,486.902C404.203,427.951,447.402,323.31,501.189,228.885C560.329,125.063,660.955,25.677,642.921,-92.438C624.888,-210.544,489.09,-265.719,411.765,-356.796C333.408,-449.088,300.227,-593.033,185.381,-631.349C70.433,-669.699,-45.831,-585.946,-160.861,-547.842C-271.605,-511.158,-389.735,-491.033,-475.84,-412.318C-567.694,-328.347,-637.296,-217.347,-656.831,-94.438C-676.503,29.329,-647.371,158.619,-583.745,266.587C-523.415,368.963,-420.323,435.71,-313.608,487.984C-215.78,535.904,-108.934,552.719,0,552.531" fill="#d66017"></path><path d="M1440 1112.804C1539.377 1090.912 1614.198 1014.385 1685.116 941.4069999999999 1743.603 881.221 1763.838 798.596 1812.076 729.922 1874.814 640.605 2027.039 585.865 2010.656 477.952 1994.222 369.703 1818.757 376.669 1746.024 294.829 1674.806 214.69400000000002 1693.624 67.60300000000001 1599.825 15.686000000000035 1506.59-35.91899999999998 1380.189-11.711999999999989 1287.643 41.11900000000003 1200.535 90.84500000000003 1190.685 211.24900000000002 1124.787 286.866 1058.605 362.81 917.138 383.053 902.769 482.758 888.401 582.455 1026.204 638.609 1060.445 733.337 1099.554 841.5319999999999 1032.673 985.874 1114.033 1067.215 1193.225 1146.388 1330.641 1136.895 1440 1112.804" fill="#f0a375"></path></g><defs><mask id="SvgjsMask1002"><rect width="1440" height="560" fill="#ffffff"></rect></mask></defs></svg>